<svg xmlns="http://www.w3.org/2000/svg" width="234" height="40" fill="none"><path fill="#7B78F7" d="M25.505 1.54c-5.645 1.14-1.504 5.602-5.808 8.501a9.743 9.743 0 0 1 4.941.789c.383.17.755.362 1.113.579.946-3.71-2.898-7.53-.246-9.868zM11.184 3.475C7.999 8.268 14.073 8.5 13.09 13.584a9.828 9.828 0 0 1 5.247-3.306c-1.954-3.292-7.375-3.275-7.153-6.804zm23.226 5.89c-2.543.068-3.553 3.618-7.546 2.83a9.827 9.827 0 0 1 3.318 5.258c3.305-1.946 3.285-7.38 6.818-7.158-1.049-.697-1.88-.949-2.59-.93zm-13.904 2.083a8.352 8.352 0 0 0-5.07 1.845l1.457 2.825-3.113-1.028a8.46 8.46 0 0 0-.735 1.323 8.303 8.303 0 0 0-.607 4.715l3.498.166-2.656 2.368a8.31 8.31 0 0 0 4.016 3.752c.238.106.48.2.727.284l1.917-2.989.71 3.423a8.342 8.342 0 0 0 5.75-2.28l-1.499-2.9 3 .988a8.308 8.308 0 0 0 .896-6.028l-2.939-.136 2.163-1.931a8.307 8.307 0 0 0-4.297-3.814l-2.021 3.15-.774-3.73-.117-.003a9.133 9.133 0 0 0-.305 0zm-9.585 3.122c-3.254.057-6.444 2.723-8.493.398 1.138 5.643 5.598 1.508 8.498 5.806a9.74 9.74 0 0 1 1.36-6.052 5.174 5.174 0 0 0-1.365-.152zm19.493 4.217a9.738 9.738 0 0 1-.784 4.97l-.015.03c-.165.37-.354.73-.564 1.076 3.713.957 7.54-2.901 9.88-.247-1.14-5.655-5.618-1.487-8.517-5.83zM11.166 22.14c-3.29 1.954-3.275 7.373-6.804 7.15 4.799 3.188 5.025-2.9 10.125-1.901a9.828 9.828 0 0 1-3.32-5.25zm17.115 3.82a9.82 9.82 0 0 1-5.261 3.34c1.948 3.302 7.382 3.282 7.16 6.814 3.193-4.806-2.922-5.028-1.9-10.151zM15.61 28.18c-.941 3.708 2.897 7.526.246 9.863 5.65-1.14 1.5-5.608 5.818-8.508a9.733 9.733 0 0 1-4.968-.786 9.885 9.885 0 0 1-1.096-.569z"/><path fill="#0C0C3C" d="M55.964 31.36c-2.616 0-4.932-.12-6.948-.36s-3.468-.48-4.356-.72V29.2l-.72-4.572c.456.384 1.212.792 2.268 1.224 1.056.432 2.412.804 4.068 1.116 1.656.288 3.576.432 5.76.432 1.344 0 2.376-.084 3.096-.252.72-.192 1.212-.456 1.476-.792s.396-.732.396-1.188c0-.576-.192-1.02-.576-1.332-.384-.336-1.08-.612-2.088-.828-.984-.216-2.388-.444-4.212-.684-2.184-.288-4.008-.684-5.472-1.188-1.464-.504-2.556-1.212-3.276-2.124-.72-.936-1.08-2.172-1.08-3.708 0-1.248.324-2.34.972-3.276.648-.936 1.692-1.668 3.132-2.196 1.44-.528 3.348-.792 5.724-.792 2.496 0 4.632.12 6.408.36 1.776.24 3 .48 3.672.72v1.08l1.08 3.96c-.6-.312-1.464-.636-2.592-.972-1.128-.336-2.436-.612-3.924-.828-1.488-.24-3.096-.36-4.824-.36-1.08 0-1.92.096-2.52.288-.6.168-1.032.42-1.296.756-.24.312-.36.708-.36 1.188 0 .576.216 1.044.648 1.404.456.336 1.188.612 2.196.828 1.008.216 2.364.42 4.068.612 2.616.288 4.632.72 6.048 1.296 1.416.576 2.388 1.32 2.916 2.232.552.888.828 1.968.828 3.24 0 1.104-.204 2.076-.612 2.916-.408.816-1.044 1.488-1.908 2.016-.84.528-1.932.924-3.276 1.188-1.32.264-2.892.396-4.716.396zm25.094 0c-4.128 0-7.116-.984-8.964-2.952-1.824-1.992-2.736-4.764-2.736-8.316 0-2.28.396-4.236 1.188-5.868.816-1.656 2.076-2.928 3.78-3.816 1.728-.912 3.972-1.368 6.732-1.368h1.116c2.712 0 4.908.444 6.588 1.332 1.704.888 2.952 2.16 3.744 3.816.792 1.656 1.188 3.624 1.188 5.904 0 3.552-.912 6.324-2.736 8.316-1.824 1.968-4.752 2.952-8.784 2.952h-1.116zm.36-3.996h.396c1.464 0 2.664-.24 3.6-.72.96-.48 1.668-1.248 2.124-2.304.456-1.08.684-2.496.684-4.248 0-1.704-.24-3.072-.72-4.104-.456-1.056-1.164-1.812-2.124-2.268-.936-.48-2.124-.72-3.564-.72h-.396c-1.488 0-2.724.252-3.708.756-.984.48-1.716 1.236-2.196 2.268-.456 1.032-.684 2.388-.684 4.068 0 1.752.24 3.168.72 4.248.504 1.056 1.236 1.824 2.196 2.304.984.48 2.208.72 3.672.72zM96.928 31c.169 0 .337-.168.505-.504.168-.336.252-.888.252-1.656V11.56c0-.768-.084-1.308-.252-1.62-.168-.336-.336-.516-.504-.54h7.056c-.168 0-.336.168-.504.504-.168.336-.252.9-.252 1.692v14.292c0 .528.06.852.18.972.144.096.576.144 1.296.144h8.676c1.392 0 2.508-.156 3.348-.468.864-.336 1.428-.66 1.692-.972l-1.08 4.32V31H96.929zm21.789 0c.12 0 .3-.168.54-.504.264-.336.564-.9.9-1.692.168-.36.432-.972.792-1.836.384-.888.816-1.908 1.296-3.06.504-1.176 1.02-2.4 1.548-3.672a182.11 182.11 0 0 0 1.548-3.672c.504-1.176.936-2.208 1.296-3.096.384-.888.648-1.524.792-1.908.312-.768.48-1.32.504-1.656.024-.336-.024-.504-.144-.504h7.848c-.096 0-.132.168-.108.504.024.312.192.864.504 1.656.144.384.396 1.02.756 1.908.36.864.78 1.884 1.26 3.06l1.512 3.636a670.845 670.845 0 0 1 1.512 3.672c.48 1.152.912 2.172 1.296 3.06.384.888.66 1.524.828 1.908.36.792.708 1.356 1.044 1.692.336.336.588.504.756.504h-8.172c.192-.024.348-.204.468-.54.144-.36.144-.912 0-1.656a4.529 4.529 0 0 0-.216-.9c-.096-.36-.204-.612-.324-.756-.12-.168-.324-.264-.612-.288a16.842 16.842 0 0 0-1.332-.036h-6.192c-.648 0-1.128.024-1.44.072-.312.024-.528.108-.648.252-.12.144-.216.384-.288.72-.024.12-.06.276-.108.468a6.742 6.742 0 0 1-.072.468c-.168.768-.216 1.32-.144 1.656.096.336.216.516.36.54h-7.56zm10.836-8.136h4.212c.696 0 1.08-.06 1.152-.18.072-.12.036-.384-.108-.792-.312-.768-.624-1.548-.936-2.34-.312-.816-.612-1.608-.9-2.376-.264-.768-.504-1.476-.72-2.124a65.763 65.763 0 0 0-.504-1.692h-.072c-.336.888-.684 1.824-1.044 2.808-.36.984-.696 1.896-1.008 2.736-.312.84-.564 1.536-.756 2.088l-.288.792c-.168.384-.228.66-.18.828.048.168.432.252 1.152.252zM146.922 31c.168 0 .324-.168.468-.504.168-.336.252-.888.252-1.656V11.56c0-.768-.084-1.308-.252-1.62-.168-.336-.336-.516-.504-.54h11.808c2.112 0 3.792.264 5.04.792 1.272.528 2.184 1.308 2.736 2.34.576 1.008.864 2.268.864 3.78 0 1.08-.204 2.04-.612 2.88a5.28 5.28 0 0 1-1.62 2.052 6.88 6.88 0 0 1-2.34 1.152v.108c.96.384 1.968 1.14 3.024 2.268a21.98 21.98 0 0 1 2.844 3.708c.552.888 1.056 1.524 1.512 1.908.456.384.804.588 1.044.612h-9.072c.288-.024.516-.18.684-.468.192-.312.132-.816-.18-1.512-.504-1.152-1.116-2.148-1.836-2.988a7.17 7.17 0 0 0-2.52-1.908c-.936-.456-2.016-.684-3.24-.684h-.396c-.744 0-1.176.06-1.296.18-.12.12-.18.42-.18.9v4.32c0 .768.084 1.32.252 1.656.168.336.336.504.504.504h-6.984zm7.704-11.196h2.952c1.512 0 2.604-.264 3.276-.792.672-.552 1.008-1.452 1.008-2.7 0-.552-.12-1.044-.36-1.476-.24-.432-.648-.768-1.224-1.008-.552-.24-1.332-.36-2.34-.36h-3.312c-.744 0-1.176.036-1.296.108-.12.072-.18.348-.18.828v4.428c0 .48.06.768.18.864.12.072.552.108 1.296.108zM172.972 31c.168 0 .324-.156.468-.468.168-.336.252-.9.252-1.692V11.56c0-.768-.084-1.32-.252-1.656-.144-.336-.3-.504-.468-.504h6.948c-.168 0-.336.168-.504.504-.168.312-.252.876-.252 1.692V28.84c0 .768.084 1.32.252 1.656.168.336.336.504.504.504h-6.948zm10.547 0c.168 0 .336-.168.504-.504.168-.336.252-.888.252-1.656V11.56c0-.768-.084-1.308-.252-1.62-.168-.336-.336-.516-.504-.54h21.024v1.08l.72 4.176c-.6-.264-1.656-.54-3.168-.828-1.512-.312-3.336-.468-5.472-.468h-5.328c-.72 0-1.152.06-1.296.18-.12.096-.18.396-.18.9v2.664c0 .528.06.84.18.936.144.096.564.144 1.26.144h5.184c1.392 0 2.508-.072 3.348-.216.864-.168 1.428-.336 1.692-.504-.096.456-.204.984-.324 1.584-.12.6-.216 1.176-.288 1.728a10.96 10.96 0 0 0-.108 1.368h-9.504c-.696 0-1.116.048-1.26.144-.12.072-.18.384-.18.936v5.616c0 .792.084 1.356.252 1.692.168.312.336.468.504.468h-7.056zm32.178 0c.192 0 .396-.156.612-.468.216-.336.324-.9.324-1.692l-.036-7.416a232.03 232.03 0 0 0-2.196-2.7c-.792-.96-1.572-1.908-2.34-2.844a306.405 306.405 0 0 0-2.088-2.52 43.277 43.277 0 0 0-1.404-1.728c-.672-.816-1.236-1.392-1.692-1.728-.432-.336-.732-.504-.9-.504h8.496c-.168.024-.228.204-.18.54.048.336.348.9.9 1.692.264.36.564.804.9 1.332.36.504.732 1.056 1.116 1.656.384.6.756 1.188 1.116 1.764.384.576.732 1.104 1.044 1.584h.036l1.08-1.584c.36-.552.72-1.092 1.08-1.62l1.08-1.584c.36-.552.72-1.092 1.08-1.62.552-.816.852-1.38.9-1.692.048-.312-.012-.468-.18-.468h8.28c-.144.024-.42.192-.828.504s-.936.852-1.584 1.62c-.36.408-.864.996-1.512 1.764-.624.744-1.32 1.596-2.088 2.556-.768.936-1.56 1.896-2.376 2.88-.792.96-1.524 1.86-2.196 2.7v7.416c0 .792.072 1.356.216 1.692.168.312.336.468.504.468h-7.164z"/></svg>