<svg xmlns="http://www.w3.org/2000/svg" width="28" height="28" fill="none"><path fill="#fff" d="m10.969 22.472-.19.726.19-.726ZM9.382 20.55l-.715.227.715-.227Zm.386 1.017-.642.388.642-.388Zm8.848-1.017.715.227-.715-.227Zm-.386 1.017.642.388-.642-.388Zm-1.2.906.189.726-.19-.726Zm1.337-3.027.282-.695-.282.695Zm.382.554.749-.034-.75.034Zm-9.118-.554-.283-.695.283.695ZM9.249 20l-.749-.034.75.034Zm8.487 2.676a.75.75 0 0 0-1.474-.282l1.474.282Zm-.866.534-.737-.14.737.14Zm-5.742 0 .737-.14-.737.14Zm.608-.816a.75.75 0 0 0-1.474.282l1.474-.282Zm.876 3.168-.244.709.244-.71Zm-1.113-.953-.66.358.66-.358Zm5 0 .66.358-.66-.358Zm-1.113.953.244.709-.244-.71Zm-5.215-5.408h7.657v-1.5H10.17v1.5Zm5.816 1.631h-3.976v1.5h3.976v-1.5Zm-3.976 0c-.58 0-.732-.006-.853-.037l-.379 1.451c.353.092.738.086 1.232.086v-1.5Zm-3.344-1.008c.158.496.27.867.46 1.178l1.282-.777c-.074-.121-.13-.284-.312-.855l-1.43.454Zm2.49.97a1.25 1.25 0 0 1-.748-.57l-1.283.778a2.75 2.75 0 0 0 1.653 1.244l.379-1.451Zm6.744-1.424c-.181.571-.238.734-.312.855l1.283.777c.188-.31.301-.682.459-1.178l-1.43-.454Zm-1.914 2.962c.495 0 .88.006 1.232-.086l-.379-1.451c-.121.031-.273.037-.853.037v1.5Zm1.602-2.107a1.25 1.25 0 0 1-.749.57l.379 1.451a2.75 2.75 0 0 0 1.653-1.244l-1.283-.777Zm.239-1.024c.154 0 .236 0 .293.004.056.003.023.007-.036-.017l.564-1.39a1.366 1.366 0 0 0-.436-.09c-.114-.008-.25-.007-.386-.007v1.5Zm1.503.623c.043-.136.085-.268.114-.38.03-.113.06-.263.053-.431l-1.499.068c-.002-.051.009-.07-.007-.01a6.537 6.537 0 0 1-.09.299l1.429.454Zm-1.246-.636c-.065-.027-.084-.077-.086-.107l1.499-.068a1.375 1.375 0 0 0-.849-1.215l-.564 1.39Zm-7.914-1.487c-.136 0-.272 0-.386.006a1.367 1.367 0 0 0-.437.091l.565 1.39c-.06.024-.092.02-.036.017.057-.004.139-.004.294-.004v-1.5Zm-.074 1.669a6.447 6.447 0 0 1-.091-.299c-.016-.06-.005-.041-.007.01L8.5 19.965c-.007.168.024.318.053.431.029.112.07.244.114.38l1.43-.454Zm-.748-1.572c-.506.205-.825.69-.849 1.215l1.499.068c-.002.03-.021.08-.086.107l-.565-1.39Zm6.913 3.643-.129.675 1.473.282.13-.675-1.474-.282Zm-4.397.675-.13-.675-1.473.282.13.675 1.473-.282Zm2.134 1.848c-.779 0-.985-.01-1.143-.064l-.488 1.418c.453.156.968.146 1.631.146v-1.5Zm-3.607-1.566c.13.685.22 1.197.448 1.616l1.318-.716c-.09-.164-.141-.39-.293-1.182l-1.473.282Zm2.464 1.502c-.288-.1-.54-.31-.698-.602l-1.318.716c.332.61.874 1.079 1.528 1.304l.488-1.418Zm3.277-1.784c-.152.792-.204 1.018-.293 1.182l1.318.716c.228-.42.317-.931.448-1.616l-1.473-.282Zm-2.134 3.348c.663 0 1.178.01 1.63-.146l-.487-1.418c-.158.054-.364.064-1.143.064v1.5Zm1.841-2.166c-.158.291-.41.502-.698.602l.488 1.418a2.771 2.771 0 0 0 1.528-1.304l-1.318-.716Z"/><path stroke="#fff" stroke-linecap="round" stroke-width="1.5" d="M7.104 17.5a8.004 8.004 0 0 1-.688-3.26c0-4.32 3.395-7.823 7.583-7.823 4.188 0 7.584 3.502 7.584 7.823a8.005 8.005 0 0 1-.688 3.26"/><path stroke="#fff" stroke-linecap="round" stroke-linejoin="round" stroke-width="1.5" d="M14 2.333V3.5M25.666 14h-1.167M3.5 14H2.333m19.915-8.25-.825.825m-14.847.001-.825-.825"/></svg>